<svg width="224" height="248" viewBox="0 0 224 248" fill="none" xmlns="http://www.w3.org/2000/svg">
<g clip-path="url(#clip0_1_18)">
<path d="M0.0875051 133.833C-0.437495 116.734 11.6375 102.348 27.0813 101.767L28.525 101.719L24.9375 100.798C9.84375 97.1172 0.306255 80.5516 3.63126 63.8406C6.95626 47.1297 21.9625 36.5703 37.0563 40.3L112.744 58.8516C113.75 57.4469 114.756 56.0906 115.85 54.7344L123.9 44.9016C131.206 36.0859 141.531 31 152.381 31H156.844C180.513 31 202.388 44.9016 214.288 67.5219L214.944 68.7812C220.894 80.0187 224 92.8547 224 105.884V166.625C224 198.739 200.506 224.75 171.5 224.75H126C110.556 224.75 98 210.848 98 193.75C98 192.394 98.0875 191.038 98.2188 189.73C89.7313 184.402 84 174.327 84 162.75V161.588L29.05 163.719C13.6063 164.3 0.612505 150.931 0.0875051 133.833ZM27.825 125.017C23.975 125.163 20.9563 128.747 21.0875 133.009C21.2188 137.272 24.4563 140.614 28.3063 140.469L98.9625 137.756C103.25 137.611 107.144 140.323 108.894 144.634C110.644 148.945 109.856 153.983 106.925 157.422C105.7 158.827 105 160.667 105 162.75C105 167.012 108.15 170.5 112 170.5C115.981 170.5 119.613 172.97 121.406 176.942C123.2 180.914 122.806 185.613 120.4 189.1C119.525 190.408 119 192.006 119 193.75C119 198.012 122.15 201.5 126 201.5H171.5C188.913 201.5 203 185.903 203 166.625V105.884C203 96.9719 200.856 88.2047 196.788 80.5031L196.131 79.2438C187.994 63.7438 173.031 54.25 156.844 54.25H152.381C147.438 54.25 142.756 56.575 139.431 60.5953L131.381 70.4281C131.119 70.7187 130.9 71.0578 130.638 71.3484L155.575 77.7422C159.338 78.7109 161.7 82.8766 160.825 87.0422C159.95 91.2078 156.188 93.8234 152.425 92.8547L114.975 83.3125L32.5063 62.9688C28.7438 62.0484 24.9813 64.6641 24.15 68.8781C23.3188 73.0922 25.6813 77.2094 29.4875 78.1297L111.519 98.2797C115.981 99.3937 119.306 103.559 119.7 108.645L119.744 109.13C120.006 112.327 119.088 115.475 117.206 117.897C115.325 120.319 112.569 121.723 109.681 121.869L27.825 125.017Z" fill="black"/>
</g>
<defs>
<clipPath id="clip0_1_18">
<rect width="224" height="248" fill="white"/>
</clipPath>
</defs>
</svg>
