<svg width="206" height="228" viewBox="0 0 206 228" fill="none" xmlns="http://www.w3.org/2000/svg">
<g clip-path="url(#clip0_1_10)">
<path d="M103 20.7273C98.2613 20.7273 94.2155 22.7514 90.8626 26.7997C87.5098 30.848 85.8333 35.733 85.8333 41.4545V62.1818H81.5417V47.1222C81.5417 41.9403 80.1111 37.5412 77.25 33.9247C74.3889 30.3082 70.8125 28.5 66.5208 28.5C62.408 28.5 58.8763 30.2812 55.9258 33.8438C52.9753 37.4062 51.5 41.6705 51.5 46.6364V116.105L47.2083 111.247V83.3949C47.2083 78.2131 45.7778 73.8139 42.9167 70.1974C40.0556 66.581 36.4792 64.7727 32.1875 64.7727C28.0747 64.7727 24.543 66.554 21.5924 70.1165C18.6419 73.679 17.1667 77.9432 17.1667 82.9091V119.182C17.1667 124.256 18.7313 128.682 21.8607 132.46L63.4362 180.392C66.9232 184.602 68.6667 190.108 68.6667 196.909C68.6667 199.716 69.5161 202.145 71.2148 204.196C72.9136 206.247 74.9253 207.273 77.25 207.273H163.083C165.408 207.273 167.42 206.247 169.118 204.196C170.817 202.145 171.667 199.716 171.667 196.909V192.861C171.667 188.435 172.114 184.278 173.008 180.392L187.492 109.79C188.386 105.903 188.833 101.747 188.833 97.321V57.4858C188.833 52.304 187.403 47.9048 184.542 44.2883C181.681 40.6719 178.104 38.8636 173.812 38.8636C169.7 38.8636 166.168 40.6449 163.217 44.2074C160.267 47.7699 158.792 52.0341 158.792 57V62.1818H154.5V41.9403C154.5 37.6222 153.382 33.7088 151.147 30.2003C148.912 26.6918 146.051 24.5057 142.564 23.642C141.312 23.4261 140.284 23.3182 139.479 23.3182C135.366 23.3182 131.835 25.0994 128.884 28.6619C125.934 32.2244 124.458 36.4886 124.458 41.4545V62.1818H120.167V42.4261C120.167 36.9205 118.714 32.0895 115.808 27.9332C112.902 23.777 109.214 21.429 104.743 20.8892C104.296 20.7812 103.715 20.7273 103 20.7273ZM103 0C110.51 0 117.171 2.69886 122.983 8.09659C128.079 4.42614 133.578 2.59091 139.479 2.59091C144.754 2.59091 149.717 4.0483 154.366 6.96307C159.015 9.87784 162.86 13.9801 165.9 19.2699C168.314 18.5142 170.951 18.1364 173.812 18.1364C182.753 18.1364 190.353 21.9957 196.612 29.7145C202.871 37.4332 206 46.6903 206 57.4858V97.321C206 102.827 205.419 108.656 204.257 114.81L189.638 185.412C189.102 188.003 188.833 191.835 188.833 196.909C188.833 205.545 186.33 212.886 181.323 218.932C176.316 224.977 170.236 228 163.083 228H77.25C69.7396 228 63.5703 224.842 58.7422 218.527C53.9141 212.212 51.5 204.52 51.5 195.452L10.1927 147.52C3.39757 139.639 0 130.193 0 119.182V82.9091C0 72.2216 3.15169 63.0724 9.45508 55.4616C15.7585 47.8508 23.3359 44.0455 32.1875 44.0455C33.171 44.0455 33.8863 44.0994 34.3333 44.2074C34.8698 33.9517 38.245 25.3153 44.459 18.2983C50.673 11.2812 58.0269 7.77273 66.5208 7.77273C71.1701 7.77273 75.5512 8.90625 79.6641 11.1733C86.1016 3.72443 93.8802 0 103 0Z" fill="black"/>
</g>
<defs>
<clipPath id="clip0_1_10">
<rect width="206" height="228" fill="white"/>
</clipPath>
</defs>
</svg>
