<svg width="277" height="277" viewBox="0 0 277 277" fill="none" xmlns="http://www.w3.org/2000/svg">
<path d="M150.042 277C130.228 277 112.147 271.468 95.7958 260.403C79.4451 249.346 67.6149 234.584 60.3052 216.118L30.8739 141.963C30.1045 140.039 29.5774 138.258 29.2927 136.619C29.0004 134.987 28.8542 133.114 28.8542 130.998C28.8542 125.227 31.0663 120.13 35.4906 115.705C39.9149 111.281 45.0125 109.069 50.7833 109.069C52.1299 109.069 53.334 109.115 54.3959 109.207C55.45 109.307 56.5542 109.55 57.7083 109.934L66.6531 112.243C69.3462 113.012 71.8469 114.02 74.1552 115.267C76.4635 116.521 78.6757 118.11 80.7917 120.033V51.9375C80.7917 43.8583 83.5809 37.0295 89.1594 31.451C94.7378 25.8726 101.567 23.0833 109.646 23.0833C110.8 23.0833 111.908 23.1295 112.97 23.2218C114.024 23.3219 115.032 23.4681 115.994 23.6604C117.148 16.3507 120.468 10.5799 125.954 6.34792C131.433 2.11597 137.538 0 144.271 0C150.426 0 155.909 1.68508 160.718 5.05525C165.527 8.41772 168.989 12.8882 171.105 18.4667C172.452 18.0819 173.752 17.7934 175.006 17.601C176.253 17.4087 177.549 17.3125 178.896 17.3125C186.975 17.3125 193.804 20.1017 199.382 25.6802C204.961 31.2587 207.75 38.0875 207.75 46.1667V52.5146C208.712 52.3222 209.674 52.176 210.635 52.076C211.597 51.9837 212.559 51.9375 213.521 51.9375C221.6 51.9375 228.429 54.7267 234.007 60.3052C239.586 65.8837 242.375 72.7125 242.375 80.7917V184.667C242.375 210.443 233.43 232.276 215.541 250.166C197.651 268.055 175.818 277 150.042 277ZM150.042 253.917C169.278 253.917 185.628 247.184 199.094 233.719C212.559 220.253 219.292 203.903 219.292 184.667V80.7917C219.292 79.2528 218.715 77.9062 217.56 76.7521C216.406 75.5979 215.06 75.0208 213.521 75.0208C211.982 75.0208 210.635 75.5979 209.481 76.7521C208.327 77.9062 207.75 79.2528 207.75 80.7917V138.5H184.667V46.1667C184.667 44.6278 184.09 43.2813 182.935 42.1271C181.781 40.9729 180.435 40.3958 178.896 40.3958C177.357 40.3958 176.01 40.9729 174.856 42.1271C173.702 43.2813 173.125 44.6278 173.125 46.1667V138.5H150.042V28.8542C150.042 27.3153 149.465 25.9688 148.31 24.8146C147.156 23.6604 145.81 23.0833 144.271 23.0833C142.732 23.0833 141.385 23.6604 140.231 24.8146C139.077 25.9688 138.5 27.3153 138.5 28.8542V138.5H115.417V51.9375C115.417 50.3986 114.84 49.0521 113.685 47.8979C112.531 46.7438 111.185 46.1667 109.646 46.1667C108.107 46.1667 106.76 46.7438 105.606 47.8979C104.452 49.0521 103.875 50.3986 103.875 51.9375V173.125H80.7917L69.5385 144.271C68.192 141.001 66.3184 138.596 63.9177 137.057C61.5094 135.518 57.516 133.883 51.9375 132.152L81.9458 207.75C87.5243 221.6 96.5191 232.757 108.93 241.221C121.334 249.685 135.037 253.917 150.042 253.917Z" fill="black"/>
</svg>
